<svg xmlns="http://www.w3.org/2000/svg" version="1.1" xmlns:xlink="http://www.w3.org/1999/xlink" width="512" height="512" x="0" y="0" viewBox="0 0 64 64" style="enable-background:new 0 0 512 512" xml:space="preserve" class=""><g><path d="M56.33 17.33a3.01 3.01 0 0 0-2.02-1.1L40 14.73V6c0-1.65-1.35-3-3-3H10C8.35 3 7 4.35 7 6v39c0 1.65 1.35 3 3 3h10.81l-.72 6.86a3.019 3.019 0 0 0 2.67 3.3l26.85 2.82c.11.01.21.02.32.02.68 0 1.34-.23 1.88-.67a3.01 3.01 0 0 0 1.1-2.02l4.08-38.79c.08-.8-.15-1.58-.65-2.2zM10 46c-.55 0-1-.45-1-1V6c0-.55.45-1 1-1h27c.55 0 1 .45 1 1v8.52l-10.54-1.11a3.003 3.003 0 0 0-3.3 2.67L21.02 46zm40.92 12.1c-.03.27-.16.5-.37.67s-.47.24-.73.22l-26.85-2.82a1 1 0 0 1-.89-1.1l4.08-38.79c.03-.27.16-.5.36-.67a.98.98 0 0 1 .73-.22l26.85 2.82c.27.03.5.16.67.36.17.21.25.47.22.73l-4.08 38.79z" fill="#000000" opacity="1" data-original="#000000"></path></g></svg>
